{"title":"Beautiful Creatures 2013 TS XviD Feel-Free","uid":8257319,"size":1242251540,"categoryP":"video","categoryS":"movies","magnet":"?xt=urn:btih:8f808524f319755651028042a1c41ea9eb1e1c2d&amp;dn=Beautiful+Creatures+2013+TS+XviD+Feel-Free&amp;tr=udp%3A%2F%2Ftracker.openbittorrent.com%3A80&amp;tr=udp%3A%2F%2Fopen.demonii.com%3A1337&amp;tr=udp%3A%2F%2Ftracker.coppersurfer.tk%3A6969&amp;tr=udp%3A%2F%2Fexodus.desync.com%3A6969","seeders":1,"leechers":0,"uploader":"Gh0stNet","files":6,"time":1363291752,"description":"Language:English\nIMDb:http://www.imdb.com/title/tt1559547/\nSource: russia/MiNiSTRY Thanks\nEncoder:Tony\n\n\nFormat                                   : AVI\nFormat/Info                              : Audio Video Interleave\nFile size                                : 1.16 GiB\nDuration                                 : 1h 57mn\nOverall bit rate                         : 1 413 Kbps\nWriting application                      : VirtualDubMod 1.5.10.2 (build 2540/release)\nWriting library                          : VirtualDubMod build 2540/release\n\nVideo\nID                                       : 0\nFormat                                   : MPEG-4 Visual\nFormat profile                           : Advanced Simple@L5\nFormat settings, BVOP                    : 1\nFormat settings, QPel                    : No\nFormat settings, GMC                     : No warppoints\nFormat settings, Matrix                  : Default (H.263)\nCodec ID                                 : XVID\nCodec ID/Hint                            : XviD\nDuration                                 : 1h 57mn\nBit rate                                 : 1 243 Kbps\nWidth                                    : 640 pixels\nHeight                                   : 272 pixels\nDisplay aspect ratio                     : 2.35:1\nFrame rate                               : 25.000 fps\nColor space                              : YUV\nChroma subsampling                       : 4:2:0\nBit depth                                : 8 bits\nScan type                                : Progressive\nCompression mode                         : Lossy\nBits/(Pixel*Frame)                       : 0.286\nStream size                              : 1.02 GiB (88%)\nWriting library                          : XviD 1.2.1 (UTC 2008-12-04)\n\nAudio\nID                                       : 1\nFormat                                   : AC-3\nFormat/Info                              : Audio Coding 3\nMode extension                           : CM (complete main)\nCodec ID                                 : 2000\nDuration                                 : 1h 57mn\nBit rate mode                            : Constant\nBit rate                                 : 160 Kbps\nChannel(s)                               : 2 channels\nChannel positions                        : Front: L R\nSampling rate                            : 48.0 KHz\nBit depth                                : 16 bits\nCompression mode                         : Lossy\nStream size                              : 134 MiB (11%)\nAlignment                                : Aligned on interleaves\nInterleave, duration                     : 40 ms (1.00 video frame)\nInterleave, preload duration             : 512 ms\n\nScreens: &lt;a href=&quot;\nhttp://i.imgur.com/4bCjQeJ.png&quot; rel=&quot;nofollow&quot; target=&quot;_NEW&quot;&gt;\nhttp://i.imgur.com/4bCjQeJ.png&lt;/a&gt; &lt;a href=&quot;\nhttp://i.imgur.com/V4P8TUP.png&quot; rel=&quot;nofollow&quot; target=&quot;_NEW&quot;&gt;\nhttp://i.imgur.com/V4P8TUP.png&lt;/a&gt; &lt;a href=&quot;\nhttp://i.imgur.com/OYlTuIY.png&quot; rel=&quot;nofollow&quot; target=&quot;_NEW&quot;&gt;\nhttp://i.imgur.com/OYlTuIY.png&lt;/a&gt;","torrent":{"xt":"urn:btih:8f808524f319755651028042a1c41ea9eb1e1c2d","amp;dn":"Beautiful+Creatures+2013+TS+XviD+Feel-Free","amp;tr":["udp%3A%2F%2Ftracker.openbittorrent.com%3A80","udp%3A%2F%2Fopen.demonii.com%3A1337","udp%3A%2F%2Ftracker.coppersurfer.tk%3A6969","udp%3A%2F%2Fexodus.desync.com%3A6969"],"infoHash":"8f808524f319755651028042a1c41ea9eb1e1c2d","infoHashBuffer":{"type":"Buffer","data":[143,128,133,36,243,25,117,86,81,2,128,66,161,196,30,169,235,30,28,45]},"announce":[],"urlList":[]}}